<svg xmlns="http://www.w3.org/2000/svg" viewBox="0 0 180 180">
  <ellipse cx="90" cy="140" rx="54" ry="17" fill="#284039" opacity=".16"/>
  <path d="M56 82 C43 55 67 33 91 52 C116 32 142 57 126 86 C144 102 132 132 102 134 L74 134 C43 133 34 101 56 82 Z" fill="#77c9bf"/>
  <path d="M62 72 C82 52 111 54 126 77 C117 85 76 85 62 72 Z" fill="#4aa9a1"/>
  <circle cx="74" cy="99" r="8" fill="#24322f"/>
  <circle cx="108" cy="99" r="8" fill="#24322f"/>
  <path d="M82 119 C88 124 96 124 102 119" stroke="#24322f" stroke-width="6" stroke-linecap="round" fill="none"/>
  <path d="M46 39 C39 49 38 57 46 62 C54 57 53 49 46 39 Z" fill="#56a9d9"/>
  <path d="M136 35 C129 45 128 53 136 58 C144 53 143 45 136 35 Z" fill="#56a9d9"/>
</svg>
